#tb 0: 1/25
#media_type 0: video
#codec_id 0: rawvideo
#dimensions 0: 352x288
#sar 0: 0/1
0,          1,          1,        1,   152064, 0x89f2e8d5
0,          2,          2,        1,   152064, 0x35b99397
0,          3,          3,        1,   152064, 0x6ef46744
0,          4,          4,        1,   152064, 0xec4d6c1c
0,          5,          5,        1,   152064, 0xad6e0c70
0,          6,          6,        1,   152064, 0x2db534b3
0,          7,          7,        1,   152064, 0xcbd25ddd
0,          8,          8,        1,   152064, 0xd90708b4
0,          9,          9,        1,   152064, 0xc2aa52df
0,         10,         10,        1,   152064, 0xbcfc84dc
0,         11,         11,        1,   152064, 0xa5a6d269
0,         12,         12,        1,   152064, 0x27220ce9
0,         13,         13,        1,   152064, 0xf075ee6d
0,         14,         14,        1,   152064, 0x9fd3c2ac
0,         15,         15,        1,   152064, 0xcba24c2d
0,         16,         16,        1,   152064, 0x41cd9441
0,         17,         17,        1,   152064, 0x0126efa3
0,         18,         18,        1,   152064, 0xf62112af
0,         19,         19,        1,   152064, 0x35aff50f
0,         20,         20,        1,   152064, 0xcb0b276f
0,         21,         21,        1,   152064, 0xc7ef0214
0,         22,         22,        1,   152064, 0x7f78d387
0,         23,         23,        1,   152064, 0x266c673d
0,         24,         24,        1,   152064, 0x1d39c073
0,         25,         25,        1,   152064, 0x6a3ae455
0,         26,         26,        1,   152064, 0xe4ce0230
0,         27,         27,        1,   152064, 0x7f95e87b
0,         28,         28,        1,   152064, 0x7c552236
0,         29,         29,        1,   152064, 0x24c799b9
0,         30,         30,        1,   152064, 0x5042d974
0,         31,         31,        1,   152064, 0xe934a5b8
0,         32,         32,        1,   152064, 0x6d59c884
0,         33,         33,        1,   152064, 0xd00f7fdb
0,         34,         34,        1,   152064, 0x62ac3ebd
0,         35,         35,        1,   152064, 0xb40a6c25
0,         36,         36,        1,   152064, 0x8706188c
0,         37,         37,        1,   152064, 0x7682e339
0,         38,         38,        1,   152064, 0x1061d943
0,         39,         39,        1,   152064, 0x50fa684a
0,         40,         40,        1,   152064, 0xab4b1975
0,         41,         41,        1,   152064, 0x2d043acb
0,         42,         42,        1,   152064, 0xe3c2ec0a
0,         43,         43,        1,   152064, 0xb9bc99dc
0,         44,         44,        1,   152064, 0x051fb857
0,         45,         45,        1,   152064, 0x71d1fe52
0,         46,         46,        1,   152064, 0x4230c694
0,         47,         47,        1,   152064, 0xb412a137
0,         48,         48,        1,   152064, 0x2f50f90d
0,         49,         49,        1,   152064, 0x68a1466f
0,         50,         50,        1,   152064, 0x77e3f47b
0,         51,         51,        1,   152064, 0x4d08de2b
0,         52,         52,        1,   152064, 0x1fc663be
0,         53,         53,        1,   152064, 0x2c8ba712
0,         54,         54,        1,   152064, 0xd50d85b9
0,         55,         55,        1,   152064, 0xe8483437
0,         56,         56,        1,   152064, 0x4e331e4c
0,         57,         57,        1,   152064, 0x0f64a7a0
0,         58,         58,        1,   152064, 0x797b0b8c
0,         59,         59,        1,   152064, 0x1b91e6d8
0,         60,         60,        1,   152064, 0xf3a1f3b6
0,         61,         61,        1,   152064, 0x2b94bd52
0,         62,         62,        1,   152064, 0x1f30962e
0,         63,         63,        1,   152064, 0x853321cf
0,         64,         64,        1,   152064, 0x8266c0ac
0,         65,         65,        1,   152064, 0x25498be0
0,         66,         66,        1,   152064, 0x0f653af9
0,         67,         67,        1,   152064, 0x0a025f7e
0,         68,         68,        1,   152064, 0x1cfbae04
0,         69,         69,        1,   152064, 0x3a874757
0,         70,         70,        1,   152064, 0x2c67006e
0,         71,         71,        1,   152064, 0x1d409bce
0,         72,         72,        1,   152064, 0xfe43121f
0,         73,         73,        1,   152064, 0x43411830
0,         74,         74,        1,   152064, 0x536d26ca
0,         75,         75,        1,   152064, 0x9eb873ea
0,         76,         76,        1,   152064, 0x093f93ec
0,         77,         77,        1,   152064, 0xdf6f0381
0,         78,         78,        1,   152064, 0xa9f4b5e5
0,         79,         79,        1,   152064, 0x08f71ef8
0,         80,         80,        1,   152064, 0x7a68f820
0,         81,         81,        1,   152064, 0xae0c73e7
0,         82,         82,        1,   152064, 0x886ae6c7
0,         83,         83,        1,   152064, 0x9357f433
0,         84,         84,        1,   152064, 0xcc335068
0,         85,         85,        1,   152064, 0x2ea108ab
0,         86,         86,        1,   152064, 0x06d7dcb0
0,         87,         87,        1,   152064, 0x81dc81bc
0,         88,         88,        1,   152064, 0xfb32b626
0,         89,         89,        1,   152064, 0x2787d1c7
0,         90,         90,        1,   152064, 0x69e51118
0,         91,         91,        1,   152064, 0xba15d94d
0,         92,         92,        1,   152064, 0xc41c09cf
0,         93,         93,        1,   152064, 0x7e50e12f
0,         94,         94,        1,   152064, 0x0763ddbe
0,         95,         95,        1,   152064, 0x8a09bb88
0,         96,         96,        1,   152064, 0x530752b7
0,         97,         97,        1,   152064, 0x9b159923
0,         98,         98,        1,   152064, 0xcbb83ed3
0,         99,         99,        1,   152064, 0xdeb5ac0e
0,        100,        100,        1,   152064, 0x189299d4
